<svg width="160" height="45" viewBox="0 0 160 45" fill="none" xmlns="http://www.w3.org/2000/svg">
<path d="M83.5373 24.2511C83.2157 25.1332 82.7016 25.9188 82.0512 26.5533C81.5791 27.0161 81.0337 27.4033 80.4358 27.683C79.6594 28.0596 78.7992 28.2641 77.897 28.2641C75.7395 28.2641 73.652 27.113 72.5188 25.3701V27.0268C72.5188 29.1893 73.0854 30.5449 74.0084 31.402C74.8373 32.1765 75.9493 32.5748 77.2047 32.8113V33.5H66.5426V32.8113C69.2143 32.3058 71.2389 31.1256 71.2389 27.0268V25.3701C70.0953 27.113 68.0114 28.2641 65.8502 28.2641C64.2453 28.2641 62.7344 27.6723 61.7097 26.575C57.9961 22.5764 58.6464 18.1437 60.4195 14.5327C61.6993 11.9078 63.5842 9.71281 64.8223 8.42539H64.8327C65.5146 7.71501 65.9972 7.28498 66.0812 7.22016C66.0604 7.31705 65.9343 7.86571 65.8401 8.66195C65.6095 10.5629 65.5674 13.8224 67.5712 15.4793C68.0854 15.1673 69.7184 13.5213 70.7779 10.6918C70.9457 10.2722 71.0927 9.82041 71.2184 9.35061C72.1626 5.85421 70.8512 0.5 70.8512 0.5C70.8512 0.5 78.2437 6.27388 78.2437 18.4776C78.2541 18.4882 80.9923 17.007 80.877 10.1435C80.8665 9.43682 85.4368 19.0155 83.5382 24.2514L83.5373 24.2511Z" fill="url(#paint0_linear_8070_27149)"/>
<path d="M57.4514 33.2864C57.4514 33.2464 57.4414 33.206 57.4218 33.1653L51.0842 22.9838L57.4218 12.8329C57.4611 12.7524 57.4662 12.6769 57.4366 12.6057C57.4066 12.5351 57.3518 12.5 57.2729 12.5H53.4646C53.3853 12.5 53.3357 12.5407 53.316 12.6211L48.9717 19.56L44.6278 12.6211C44.5682 12.5407 44.4985 12.5 44.4196 12.5H40.6407C40.5217 12.5 40.4621 12.5709 40.4621 12.7121C40.4621 12.7725 40.4721 12.8132 40.4921 12.8332L46.8293 22.9841L40.4921 33.1653C40.4718 33.206 40.4621 33.2464 40.4621 33.2864C40.4621 33.4279 40.5217 33.4985 40.6407 33.4985H44.4196C44.4989 33.4985 44.5682 33.4683 44.6278 33.4075L48.9717 26.4388L53.316 33.4075C53.3357 33.4679 53.3853 33.4985 53.4646 33.4985H57.2729C57.3918 33.4985 57.4514 33.4282 57.4514 33.2864Z" fill="white"/>
<path d="M18.3273 12.713V33.3178C18.3273 33.439 18.2577 33.4997 18.1191 33.4997H14.7273L14.6676 33.439L3.60002 18.5912V33.3175C3.60002 33.4386 3.5304 33.4994 3.3918 33.4994H0.178567C0.0596298 33.4994 0 33.4386 0 33.3175V12.7126C0 12.5715 0.0596298 12.5006 0.178567 12.5006H3.48109C3.52073 12.5006 3.54523 12.5058 3.55522 12.5157C3.56489 12.5259 3.58004 12.5308 3.60002 12.5308L3.65965 12.5915L14.7276 27.4389V12.7126C14.7276 12.5715 14.7969 12.5006 14.9358 12.5006H18.1194C18.258 12.5006 18.3273 12.5718 18.3273 12.713Z" fill="white"/>
<path d="M38.3494 12.6066C38.389 12.6778 38.389 12.7533 38.3494 12.8337L31.2982 25.3177V33.2866C31.2982 33.4284 31.2283 33.4987 31.09 33.4987H27.8768C27.7578 33.4987 27.6982 33.4281 27.6982 33.2866V25.3177L20.6168 12.8337C20.5774 12.7533 20.5774 12.6775 20.6168 12.6066C20.6571 12.536 20.7167 12.5009 20.7957 12.5009H24.4846C24.5443 12.5009 24.6036 12.5416 24.6632 12.622L29.4832 21.1668L34.3029 12.622C34.3626 12.5416 34.4219 12.5009 34.4815 12.5009H38.1708C38.2498 12.5009 38.3094 12.536 38.3494 12.6066Z" fill="white"/>
<path fill-rule="evenodd" clip-rule="evenodd" d="M102.549 22.2274C103.184 22.8133 103.689 23.5201 104.067 24.3486C104.443 25.1768 104.632 26.0655 104.632 27.0148C104.632 27.5407 104.567 28.0501 104.438 28.5452C104.309 29.0405 104.136 29.5201 103.918 29.9846C103.402 31.0351 102.643 31.8833 101.641 32.5296C100.64 33.1767 99.5141 33.4993 98.2644 33.4993H88.3569C88.2379 33.4993 88.1783 33.4288 88.1783 33.2873V12.7129C88.1783 12.5718 88.2379 12.5009 88.3569 12.5009H98.2644C99.0577 12.5009 99.8016 12.6575 100.496 12.9706C101.19 13.2838 101.795 13.7027 102.311 14.2279C102.827 14.7538 103.238 15.3696 103.546 16.0763C103.853 16.7838 104.007 17.5414 104.007 18.3489C104.007 19.1171 103.878 19.8238 103.62 20.4702C103.362 21.1169 103.005 21.7022 102.549 22.2274ZM91.7787 20.5306H98.2648C98.8398 20.5306 99.3407 20.3172 99.7671 19.8901C100.194 19.4627 100.407 18.9441 100.407 18.3338C100.407 17.7439 100.194 17.2355 99.7671 16.8084C99.3407 16.3813 98.8398 16.1676 98.2648 16.1676H91.7787V20.5306ZM98.2648 29.833C98.6412 29.833 98.9984 29.7575 99.3358 29.6058C99.673 29.4541 99.965 29.2526 100.214 28.9998C100.461 28.7471 100.66 28.4493 100.809 28.1056C100.957 27.7623 101.032 27.3989 101.032 27.0148C101.032 26.6307 100.957 26.268 100.809 25.9243C100.66 25.5809 100.461 25.2832 100.214 25.0301C99.965 24.7777 99.673 24.5755 99.3358 24.4241C98.9984 24.2725 98.6412 24.197 98.2648 24.197H91.7787V29.833H98.2648Z" fill="white"/>
<path d="M123.589 15.9552V12.6827C123.589 12.5616 123.519 12.5009 123.38 12.5009H108.743C108.604 12.5009 108.534 12.5616 108.534 12.6827V33.2873C108.534 33.4288 108.603 33.4993 108.743 33.4993H123.38C123.519 33.4993 123.589 33.4291 123.589 33.2873V30.0434C123.589 29.9029 123.519 29.833 123.38 29.833H112.134V25.015H121.952C122.071 25.015 122.131 24.9448 122.131 24.8029V21.5305C122.131 21.4093 122.071 21.3486 121.952 21.3486H112.134V16.1673H123.38C123.519 16.1673 123.589 16.097 123.589 15.9552Z" fill="white"/>
<path d="M142.478 12.7129V15.9552C142.478 16.097 142.408 16.1673 142.269 16.1673H136.706V33.287C136.706 33.4288 136.636 33.499 136.498 33.499H133.314C133.175 33.499 133.106 33.4284 133.106 33.287V16.1673H127.572C127.433 16.1673 127.364 16.0967 127.364 15.9552V12.7129C127.364 12.5718 127.433 12.5009 127.572 12.5009H142.269C142.408 12.5009 142.478 12.5718 142.478 12.7129Z" fill="white"/>
<path d="M160 15.9857V12.7129C160 12.5718 159.93 12.5009 159.791 12.5009H150.509C149.655 12.5009 148.858 12.663 148.114 12.9857C147.369 13.3094 146.72 13.7539 146.165 14.3191C145.609 14.8851 145.173 15.5462 144.855 16.3038C144.538 17.0615 144.379 17.8743 144.379 18.7432C144.379 19.6121 144.538 20.4249 144.855 21.1825C145.173 21.9401 145.609 22.6019 146.165 23.1672C146.72 23.7331 147.369 24.1779 148.114 24.5006C148.858 24.8243 149.656 24.9855 150.509 24.9855H154.02C154.674 24.9855 155.234 25.2235 155.701 25.6978C156.166 26.1725 156.4 26.743 156.4 27.4097C156.4 28.0764 156.167 28.6473 155.701 29.1219C155.234 29.5966 154.674 29.8339 154.02 29.8339H144.558C144.439 29.8339 144.38 29.9045 144.38 30.046V33.2879C144.38 33.4294 144.439 33.5 144.558 33.5H154.02C154.853 33.5 155.631 33.3382 156.355 33.0152C157.079 32.6918 157.709 32.2575 158.244 31.7119C158.78 31.1667 159.206 30.5256 159.524 29.788C159.841 29.051 160 28.2576 160 27.4094C160 26.5611 159.841 25.7684 159.524 25.0308C159.206 24.2938 158.78 23.6524 158.244 23.1068C157.709 22.5616 157.079 22.1269 156.355 21.8039C155.631 21.4806 154.853 21.3187 154.02 21.3187H150.509C149.814 21.3187 149.219 21.0663 148.724 20.5611C148.227 20.0566 147.98 19.4499 147.98 18.7432C147.98 18.0364 148.228 17.4301 148.724 16.9252C149.219 16.4204 149.814 16.1676 150.509 16.1676H159.791C159.93 16.1676 160 16.1069 160 15.9857Z" fill="white"/>
<defs>
<linearGradient id="paint0_linear_8070_27149" x1="71.4996" y1="33.3299" x2="71.4996" y2="1.31195" gradientUnits="userSpaceOnUse">
<stop stop-color="#FF6F00"/>
<stop offset="1" stop-color="#990000"/>
</linearGradient>
</defs>
</svg>
